<svg id="Layer_1" data-name="Layer 1" xmlns="http://www.w3.org/2000/svg" viewBox="0 0 725.08 1023.45"><defs><style>.cls-1{fill:#435ba9;}.cls-2{fill:#4767b0;}.cls-3{fill:#ebebeb;}.cls-4{fill:#010101;}.cls-5{fill:#fff;}</style></defs><g id="layer1"><g id="g3013"><polygon id="polygon2989" class="cls-1" points="725.08 201.13 659.02 941.13 362.1 1023.45 65.99 941.25 0 201.13 725.08 201.13"/><polygon id="polygon2991" class="cls-2" points="602.47 894.01 658.92 261.65 362.54 261.65 362.54 960.53 602.47 894.01"/><polygon id="polygon2993" class="cls-3" points="151.27 536.15 159.41 626.92 362.54 626.92 362.54 536.15 151.27 536.15"/><polygon id="polygon2995" class="cls-3" points="362.54 352.42 362.23 352.42 134.93 352.42 143.18 443.19 362.54 443.19 362.54 352.42"/><polygon id="polygon2997" class="cls-3" points="362.54 866.34 362.54 771.89 362.14 772 261.05 744.7 254.59 672.31 205.46 672.31 163.47 672.31 176.18 814.83 362.12 866.45 362.54 866.34"/><path id="path2999" class="cls-4" d="M319.74-.11H429.68v46h-64v46h64v46H319.74Z" transform="translate(-149.1 0.11)"/><path id="path3001" class="cls-4" d="M451.67-.11H561.61v40h-64v8h64v92H451.67v-42h64v-8h-64Z" transform="translate(-149.1 0.11)"/><path id="path3003" class="cls-4" d="M583.6-.11H693.54v40h-64v8h64v92H583.6v-42h64v-8h-64Z" transform="translate(-149.1 0.11)"/><polygon id="polygon3005" class="cls-5" points="474 626.92 463.47 744.64 362.23 771.97 362.23 866.41 548.32 814.83 549.68 799.5 571.01 560.52 573.23 536.15 589.61 352.42 362.23 352.42 362.23 443.19 490.13 443.19 481.87 536.15 362.23 536.15 362.23 626.92 474 626.92"/></g></g></svg>