<svg id="Layer_1" data-name="Layer 1" xmlns="http://www.w3.org/2000/svg" xmlns:xlink="http://www.w3.org/1999/xlink" viewBox="0 0 1021.62 1021.62"><defs><style>.cls-1{fill:none;}.cls-2{clip-path:url(#clip-path);}.cls-3{fill:#5b67af;}.cls-4{fill:#fff;}</style><clipPath id="clip-path" transform="translate(0.18)"><rect class="cls-1" x="-0.18" width="1024" height="1024"/></clipPath></defs><g class="cls-2"><path class="cls-3" d="M-.18,510.81C-.18,228.61,228.44,0,510.63,0s510.81,228.61,510.81,510.81-228.61,510.81-510.81,510.81h0C228.44,1021-.18,792.41-.18,510.81Z" transform="translate(0.18)"/><path class="cls-4" d="M740.44,303C697,283.39,651.73,269.1,604.7,261.36a394,394,0,0,0-17.27,35.72,491.41,491.41,0,0,0-150.62,0A333.25,333.25,0,0,0,419,261.36a513.86,513.86,0,0,0-135.74,42.27c-85.73,128-108.95,252.43-97.64,375.66,50.61,37.51,106.57,66.09,166.7,84A387.65,387.65,0,0,0,388,705.49a322.81,322.81,0,0,1-56-26.79c4.76-3.57,8.93-7.15,13.69-10.72a389.2,389.2,0,0,0,333.4,0c4.76,3.57,8.93,7.15,13.69,10.72a328.49,328.49,0,0,1-56.56,26.79A387.65,387.65,0,0,0,672,763.24c60.13-18.46,116.69-46.44,166.7-84C851.77,536.41,814.86,412.58,740.44,303ZM402.28,603.09c-32.74,0-58.94-29.77-58.94-66.09s26.2-66.67,58.94-66.67c33.34,0,59.53,29.76,59.53,66.67C461.22,573.32,435.62,603.09,402.28,603.09Zm219.09,0c-32.75,0-58.94-29.77-58.94-66.09s26.19-66.67,58.94-66.67c33.34,0,59.53,29.76,58.94,66.67S654.11,603.09,621.37,603.09Z" transform="translate(0.18)"/></g></svg>