<svg id="Layer_1" data-name="Layer 1" xmlns="http://www.w3.org/2000/svg" xmlns:xlink="http://www.w3.org/1999/xlink" viewBox="0 0 1007.34 1007.34"><defs><style>.cls-1{fill:none;}.cls-2{clip-path:url(#clip-path);}.cls-3{fill:#3c5a9a;}.cls-4{fill:#fff;}</style><clipPath id="clip-path" transform="translate(-9.21 -10.1)"><rect class="cls-1" x="-457.12" y="-414.71" width="3864.89" height="1887.16"/></clipPath></defs><g id="layer1"><g id="g4670"><g class="cls-2"><g id="g4672"><g id="g4678"><path id="path4680" class="cls-3" d="M961,1017.45a55.61,55.61,0,0,0,55.6-55.6V65.7A55.6,55.6,0,0,0,961,10.1H64.81A55.6,55.6,0,0,0,9.21,65.7V961.85a55.6,55.6,0,0,0,55.6,55.6Z" transform="translate(-9.21 -10.1)"/></g><g id="g4682"><path id="path4684" class="cls-4" d="M704.26,1017.45V627.35H835.2l19.6-152H704.26V378.26c0-44,12.22-74,75.34-74l80.5,0v-136c-13.92-1.85-61.71-6-117.31-6-116.07,0-195.53,70.85-195.53,201V475.32H416v152H547.26v390.1Z" transform="translate(-9.21 -10.1)"/></g></g></g></g></g></svg>