<svg id="Layer_1" data-name="Layer 1" xmlns="http://www.w3.org/2000/svg" viewBox="0 0 1024 1023.98"><defs><style>.cls-1{fill:#f05333;}</style></defs><path class="cls-1" d="M1004.68,466.39,557.6,19.33a65.93,65.93,0,0,0-93.26,0l-92.83,92.85L489.27,229.94a78.32,78.32,0,0,1,99.17,99.85L702,443.29a78.38,78.38,0,1,1-47,44.25L549.09,381.68V660.25A78.31,78.31,0,1,1,484.57,658V376.8a77.6,77.6,0,0,1-25.7-17.13A78.45,78.45,0,0,1,442,273.89L325.89,157.78,19.32,464.32a66,66,0,0,0,0,93.28l447.1,447.07a65.93,65.93,0,0,0,93.26,0l445-445A66,66,0,0,0,1004.68,466.39Z" transform="translate(0 -0.01)"/></svg>