<svg id="Layer_1" data-name="Layer 1" xmlns="http://www.w3.org/2000/svg" viewBox="0 0 725.6 1024"><defs><style>.cls-1{fill:#010101;}.cls-2{fill:#e44f26;}.cls-3{fill:#f1672a;}.cls-4{fill:#ebebeb;}.cls-5{fill:#fff;}</style></defs><path class="cls-1" d="M216.8,0h46V45.6h42.4V0h46V138h-46V92h-42v46H216.8M412,46H371.4V0H498.8V46H458v92H412M519,0h48.2l29.6,48.6L626.4,0h48.2V138h-46V69.6l-32.2,49.6L564.2,69.6V138H519M697.4,0h46V92.4h65.2V138H697.4" transform="translate(-149.2)"/><path class="cls-2" d="M215.2,942l-66-740.8H874.8l-66,740.4L511.4,1024" transform="translate(-149.2)"/><path class="cls-3" d="M512,961V262H808.6L752,894" transform="translate(-149.2)"/><path class="cls-4" d="M284,352.6H512v90.8H383.6l8.4,93H512V627H308.8m4,45.6H404l6.4,72.6L512,772.4v94.8l-186.4-52" transform="translate(-149.2)"/><path class="cls-5" d="M739.2,352.6H511.6v90.8H730.8m-8.2,93h-211v90.8h112L613,745.2,511.6,772.4v94.4l186-51.6" transform="translate(-149.2)"/></svg>