<svg id="Layer_1" data-name="Layer 1" xmlns="http://www.w3.org/2000/svg" xmlns:xlink="http://www.w3.org/1999/xlink" viewBox="0 0 1024 1023.79"><defs><style>.cls-1{fill:url(#radial-gradient);}.cls-2{fill:url(#radial-gradient-2);}.cls-3{fill:#654da0;}</style><radialGradient id="radial-gradient" cx="30.13" cy="451.38" r="1480.5" gradientTransform="matrix(1, -0.05, -0.04, -0.85, 8.62, 1314.87)" gradientUnits="userSpaceOnUse"><stop offset="0" stop-color="#fdd477"/><stop offset="0.26" stop-color="#f37236"/><stop offset="0.61" stop-color="#bd3382"/><stop offset="1" stop-color="#5365ae"/></radialGradient><radialGradient id="radial-gradient-2" cx="257.92" cy="452.53" r="760.26" gradientTransform="matrix(1, -0.05, -0.04, -0.85, 21.24, 1124.37)" xlink:href="#radial-gradient"/></defs><g id="Symbol"><path class="cls-1" d="M176.7,27C143,40.07,114.47,57.55,86,86.06c-28.52,28.31-46,57-59.11,90.54C14.15,209.07,5.62,246.32,3.12,300.85S0,372.87,0,511.9s.62,156.51,3.12,211,11.24,91.79,23.73,124.25C40,880.91,57.44,909.42,86,937.94s57,46,90.74,59.11c32.47,12.69,69.73,21.23,124.26,23.72s72,3.13,211,3.13,156.51-.63,211-3.13,91.79-11.24,124.26-23.72c33.71-13.12,62.23-30.6,90.74-59.11s46-57,59.11-90.75c12.7-32.46,21.23-69.72,23.73-124.25s3.12-72,3.12-211-.62-156.52-3.12-211-11.24-91.78-23.73-124.25c-13.11-33.51-30.59-62.23-58.9-90.54-28.51-28.51-57-46-90.74-59.11C815,14.26,777.78,5.72,723.25,3.23S651.24.1,512.21.1s-156.52.63-211,3.13C246.43,5.52,209.17,14.26,176.7,27ZM718.88,95.22c50,2.29,77,10.61,95.12,17.69,23.93,9.37,41,20.4,58.9,38.3s28.93,35,38.29,58.9c7.08,18.1,15.41,45.16,17.69,95.11,2.5,53.91,2.92,70.14,2.92,206.88s-.63,153-2.92,206.89c-2.28,50-10.61,77-17.69,95.11-9.36,23.94-20.39,41-38.29,58.9s-35,28.93-58.9,38.3c-18.11,7.07-45.17,15.4-95.12,17.69-53.9,2.5-70.14,2.91-206.88,2.91s-153-.62-206.88-2.91c-50-2.29-77-10.62-95.12-17.69-23.93-9.37-41-20.4-58.9-38.3s-28.93-35-38.29-58.9C105.73,796,97.4,768.94,95.12,719c-2.5-53.91-2.92-70.14-2.92-206.89s.63-153,2.92-206.88c2.28-50,10.61-77,17.69-95.11,9.36-23.94,20.39-41,38.29-58.9s35-28.93,58.9-38.3c18.11-7.08,45.17-15.4,95.12-17.69,53.9-2.5,70.14-2.91,206.88-2.91S665,92.72,718.88,95.22Z" transform="translate(0 -0.1)"/><path class="cls-2" d="M249.13,512.1C249.13,657.38,366.93,775,512,775S774.87,657.17,774.87,512.1,657.27,249.24,512,249.24,249.13,366.83,249.13,512.1Zm433.54,0A170.67,170.67,0,1,1,512,341.44,170.64,170.64,0,0,1,682.67,512.1Z" transform="translate(0 -0.1)"/><circle class="cls-3" cx="785.48" cy="238.73" r="61.4"/></g></svg>