<svg id="Layer_1" data-name="Layer 1" xmlns="http://www.w3.org/2000/svg" viewBox="0 0 1024 1024"><defs><style>.cls-1{fill:#f6df19;}.cls-2{fill:#010101;}</style></defs><rect class="cls-1" width="1024" height="1024" rx="153.6"/><path class="cls-2" d="M648,740c20,34,48,58,94,58,40,0,66-20,66-48,0-32-26-44-70-64l-24-10c-70-30-116-66-116-144,0-72,54-128,140-128,62,0,106,22,136,78l-74,48c-16-30-34-42-62-42s-46,18-46,42c0,28,18,40,60,58l24,10c82,36,128,70,128,152,0,86-68,134-160,134-90,0-148-42-176-98Zm-340,8c16,26,28,50,62,50,32,0,52-12,52-60V406h96V734c0,100-58,144-144,144-78,0-122-40-144-88Z" transform="translate(0 0)"/></svg>