<svg id="Layer_1" data-name="Layer 1" xmlns="http://www.w3.org/2000/svg" viewBox="0 0 459.95 1024"><defs><style>.cls-1{fill:#599642;}.cls-2{fill:#6dac46;}.cls-3{fill:#c3bfbf;}</style></defs><path class="cls-1" d="M508.8,2.8l27.32,51.32a153.38,153.38,0,0,0,20.64,25.66,716.44,716.44,0,0,1,64.12,72.51c46.3,60.79,77.53,128.31,99.84,201.33A495.45,495.45,0,0,1,741.9,490.25c2.24,138.32-45.18,257.1-140.79,355.81A405.6,405.6,0,0,1,550.87,889c-9.47,0-14-7.26-17.85-14a114.79,114.79,0,0,1-13.95-40.16c-3.36-16.73-5.57-33.47-4.48-50.74v-7.81c-.77-1.67-9.12-769.61-5.79-773.54Z" transform="translate(-282.03 0)"/><path class="cls-2" d="M508.8,1.1c-1.12-2.24-2.24-.54-3.36.54.54,11.2-3.36,21.19-9.48,30.72-6.71,9.47-15.61,16.74-24.54,24.54-49.59,42.95-88.63,94.81-119.89,152.83-41.6,78.07-63,161.74-69.12,249.83-2.78,31.78,10,143.9,20.07,176.25,27.32,85.88,76.41,157.84,140,220.3a612.83,612.83,0,0,0,49.6,42.4c5,0,5.57-4.48,6.72-7.81a152.84,152.84,0,0,0,5-21.76L515,785.3Z" transform="translate(-282.03 0)"/><path class="cls-3" d="M536.12,923c1.12-12.8,7.26-23.42,14-34-6.72-2.78-11.71-8.32-15.61-14.49a103.54,103.54,0,0,1-8.32-18.4c-7.81-23.43-9.47-48-11.71-71.93v-14.5c-2.79,2.24-3.36,21.18-3.36,24A556.37,556.37,0,0,1,501,868.94c-1.66,10-2.78,20.06-9,29a11.15,11.15,0,0,0,.54,3.9c10,29.57,12.8,59.68,14.5,90.36v11.2c0,13.38-.54,10.56,10.56,15,4.48,1.67,9.47,2.24,14,5.57,3.36,0,3.9-2.78,3.9-5l-1.66-18.4V949.25c-.54-9,1.12-17.85,2.24-26.23Z" transform="translate(-282.03 0)"/></svg>