<svg id="Layer_1" data-name="Layer 1" xmlns="http://www.w3.org/2000/svg" viewBox="0 0 1024 920.66"><defs><style>.cls-1{fill:#fff;}.cls-2{fill:#54c1de;}</style></defs><path class="cls-1" d="M0,510.35c0,77.33,75.52,149.52,194.57,190.21-23.78,119.69-4.26,216.15,60.91,253.74,67,38.64,166.8,11.89,261.53-70.92,92.33,79.47,185.66,110.74,250.77,73,66.94-38.74,87.29-141.75,62.86-265.17,124-41,193.36-102.55,193.36-180.9,0-75.54-75.65-140.89-193.1-181.32,26.3-128.53,4-222.65-63.86-261.79C701.6,29.5,607.2,62.39,513.5,143.93,416,57.39,322.55,31,254.75,70.21c-65.38,37.85-84,136.07-60.18,258C79.53,368.28,0,435.11,0,510.35Z" transform="translate(0 -51.67)"/><path class="cls-2" d="M806,369.18q-14.52-5-29.28-9.23,2.44-9.94,4.53-20c22.16-107.57,7.67-194.23-41.81-222.75-47.44-27.36-125,1.16-203.39,69.35q-11.58,10.11-22.64,20.78-7.41-7.1-15.07-13.91c-82.13-72.92-164.44-103.65-213.87-75C237.11,145.85,223.07,227.32,243,329.27q3,15.14,6.72,30.12c-11.65,3.31-22.9,6.83-33.66,10.58C119.8,403.54,58.31,456.15,58.31,510.72c0,56.36,66,112.89,166.3,147.16q12.19,4.15,24.59,7.69-4,16.13-7.15,32.47c-19,100.17-4.16,179.71,43.11,207,48.82,28.15,130.76-.79,210.56-70.53q9.45-8.28,19-17.5,12,11.57,24.59,22.43c77.29,66.51,153.62,93.37,200.85,66,48.78-28.24,64.63-113.69,44-217.65q-2.35-11.91-5.45-24.31c5.75-1.7,11.4-3.45,16.91-5.28,104.26-34.54,172.08-90.38,172.08-147.49C967.71,456,904.25,403,806,369.18Z" transform="translate(0 -51.67)"/><path class="cls-1" d="M783.41,621.34q-7.45,2.46-15.27,4.78c-11.51-36.44-27-75.19-46-115.21,18.14-39.08,33.07-77.33,44.26-113.53,9.3,2.7,18.33,5.53,27,8.53,84.16,29,135.49,71.8,135.49,104.81,0,35.15-55.44,80.79-145.45,110.62Zm-37.35,74c9.1,46,10.4,87.53,4.37,120-5.41,29.2-16.3,48.66-29.77,56.46-28.66,16.59-89.95-5-156-61.86q-11.36-9.78-22.86-20.84c25.62-28,51.23-60.61,76.22-96.8,44-3.9,85.5-10.28,123.17-19q2.77,11.22,4.92,22ZM368.35,869c-28,9.89-50.3,10.17-63.78,2.4C275.88,854.82,264,791,280.22,705.28q2.91-15.18,6.64-30.19c37.25,8.24,78.48,14.16,122.55,17.74a945.65,945.65,0,0,0,78.07,96.45q-8.48,8.19-17.33,16C434.87,836.07,399.51,858,368.35,869ZM237.17,621.12c-44.34-15.16-81-34.85-106.07-56.35-22.55-19.31-33.94-38.49-33.94-54,0-33.12,49.37-75.35,131.71-104.06q15.51-5.39,31.3-9.85A930.52,930.52,0,0,0,304.5,511.66a946.2,946.2,0,0,0-44.88,116.49Q248.31,624.91,237.17,621.12Zm44-299.32C264.05,234.46,275.4,168.57,304,152c30.43-17.62,97.7,7.5,168.61,70.46q6.8,6,13.64,12.59A931.89,931.89,0,0,0,408.75,331a950.13,950.13,0,0,0-121.36,18.86q-3.47-13.94-6.25-28Zm392.28,96.87q-13.33-23-27.66-45.48c29,3.66,56.82,8.53,82.92,14.49A827.94,827.94,0,0,1,699.58,466Q687,442.07,673.42,418.67Zm-160-155.81A831.12,831.12,0,0,1,567,327.46q-53.72-2.54-107.49,0c17.67-23.3,35.77-44.95,54-64.58Zm-161,156.07q-13.38,23.22-25.67,47c-11.31-26.83-21-53.21-28.89-78.69,25.94-5.81,53.61-10.55,82.44-14.15Q365.86,395.7,352.45,418.93Zm28.71,232.16a827.94,827.94,0,0,1-83.81-13.48c8-25.92,17.92-52.87,29.48-80.28q12.33,23.82,25.78,47.06Q366.34,628.07,381.16,651.09ZM514.52,761.32c-18.41-19.87-36.77-41.84-54.71-65.48q26.12,1,53.2,1,27.81,0,54.9-1.22A826.08,826.08,0,0,1,514.52,761.32ZM700,555.93a827.05,827.05,0,0,1,30.54,80,824.42,824.42,0,0,1-84.83,14.46q14.42-22.86,27.91-46.27,13.73-23.8,26.38-48.19Zm-60,28.78q-20.67,35.89-43.63,70.39C569.31,657,541.43,658,513,658s-55.82-.88-82.33-2.6q-23.55-34.39-44.45-70.5-20.78-35.88-38.8-73.27,18-37.38,38.69-73.31h0q20.7-35.93,44.09-70.2C457.26,366.1,485,365,513,365s55.92,1.08,83,3.14q23.13,34.2,43.82,70t39.2,73q-18.22,37.49-39.08,73.61Zm80.14-433.83c30.45,17.56,42.3,88.39,23.17,181.26q-1.89,9.08-4.09,18.08A932.51,932.51,0,0,0,617.54,331c-25-35.58-50.88-67.93-76.87-95.94q10.22-9.84,20.91-19.18c67.14-58.43,129.89-81.5,158.48-65Z" transform="translate(0 -51.67)"/><path class="cls-2" d="M513,429.51a81.21,81.21,0,1,1-81.2,81.21A81.2,81.2,0,0,1,513,429.51" transform="translate(0 -51.67)"/></svg>