<svg id="Layer_1" data-name="Layer 1" xmlns="http://www.w3.org/2000/svg" viewBox="0 0 1024 832.18"><defs><style>.cls-1{fill:#2ba9e0;}</style></defs><g id="layer1"><path id="path5" class="cls-1" d="M1024,194.42A420,420,0,0,1,903.34,227.5a210.7,210.7,0,0,0,92.37-116.23,420.42,420.42,0,0,1-133.41,51A209.8,209.8,0,0,0,709,95.91c-116,0-210.09,94.06-210.09,210.08a210.49,210.49,0,0,0,5.44,47.88c-174.6-8.76-329.4-92.4-433-219.51a210.3,210.3,0,0,0,65,280.48,209.16,209.16,0,0,1-95.15-26.28c0,.88,0,1.76,0,2.65,0,101.78,72.42,186.69,168.53,206a210.48,210.48,0,0,1-94.87,3.6A210.28,210.28,0,0,0,311,746.7,421.5,421.5,0,0,1,50.11,836.64,427.44,427.44,0,0,1,0,833.7a594.61,594.61,0,0,0,322,94.39c386.43,0,597.74-320.12,597.74-597.75q0-13.65-.61-27.18A426.73,426.73,0,0,0,1024,194.42Z" transform="translate(0 -95.91)"/></g></svg>