<svg id="Layer_1" data-name="Layer 1" xmlns="http://www.w3.org/2000/svg" viewBox="0 0 1024 1024"><defs><style>.cls-1{fill:#3978bd;}.cls-2{fill:#fff;fill-rule:evenodd;}</style></defs><rect class="cls-1" width="1024" height="1024" rx="100"/><path class="cls-2" d="M634,814V914c16.2,8.4,36,14.6,58,18.8a378.26,378.26,0,0,0,70,6.2,326.74,326.74,0,0,0,68-6.8,172.51,172.51,0,0,0,56-22c16.2-10.6,30-24,38-42s14.2-38,14.2-64c0-18.2-2.8-34-8.2-48a94.23,94.23,0,0,0-24-36,158.84,158.84,0,0,0-36-28,446.61,446.61,0,0,0-48-24c-13.2-5.4-24-10.6-36-15.8-10.4-5.2-19.4-10.4-26-15.6A71.38,71.38,0,0,1,743,620a35.12,35.12,0,0,1-6-20,33.52,33.52,0,0,1,5.4-18.6,46.8,46.8,0,0,1,15-14.2c6.4-4,14.4-7,24-9.2,9.4-2.2,19.8-3.2,32-3.2a184.67,184.67,0,0,1,26,1.88,214.54,214.54,0,0,1,28,5.8,222.21,222.21,0,0,1,28,9.8,132.13,132.13,0,0,1,24,13.8v-94a247.06,247.06,0,0,0-50-13c-18-2.8-38-4.2-62-4.2a301.52,301.52,0,0,0-68,7.6c-22,5-40,13-56,24-16.2,10.8-28,24-38,42-9.4,16.8-14,36-14,60,0,30,8.6,56,26,76,17.2,22,44,38,78,54,13.8,5.6,26,11.2,38,16.6a170.64,170.64,0,0,1,30,16.8c8.6,5.8,15.4,12.2,20,19a39.48,39.48,0,0,1,7.6,24,37.19,37.19,0,0,1-4.6,18c-3,5.6-7.8,10.4-14.2,14.4s-14.2,7.2-24,9.6c-9.4,2.2-20,3.4-34,3.4a181.3,181.3,0,0,1-64-11.4,190.08,190.08,0,0,1-60-34ZM466,568H594V486H236v82H364V934H466Z" transform="translate(0)"/></svg>