<svg id="Layer_1" data-name="Layer 1" xmlns="http://www.w3.org/2000/svg" xmlns:xlink="http://www.w3.org/1999/xlink" viewBox="0 0 1024 1018.1"><defs><style>.cls-1{fill:#fff;}.cls-1,.cls-7{fill-rule:evenodd;}.cls-2{mask:url(#mask);}.cls-3{fill:#0265a9;}.cls-4{fill:#2479bf;}.cls-5{fill:#4497d2;}.cls-6{opacity:0.25;}.cls-7{fill:url(#linear-gradient);}</style><mask id="mask" x="0" y="0" width="1024" height="1018.1" maskUnits="userSpaceOnUse"><g transform="translate(0 -2.95)"><g id="mask0"><path class="cls-1" d="M726.32,1016.7a63.66,63.66,0,0,0,50.76-2l210.7-101.38A64,64,0,0,0,1024,855.72V168.28a64,64,0,0,0-36.22-57.64L777.08,9.25a63.72,63.72,0,0,0-72.69,12.38L301,389.62,125.34,256.25a42.61,42.61,0,0,0-54.42,2.42L14.57,309.93A42.66,42.66,0,0,0,14.52,373L166.89,512,14.52,651a42.66,42.66,0,0,0,.05,63.06l56.35,51.26a42.6,42.6,0,0,0,54.42,2.42L301,634.38l403.35,368A63.67,63.67,0,0,0,726.32,1016.7Zm42-737L462.26,512l306,232.32Z"/></g></g></mask><linearGradient id="linear-gradient" x1="511.69" y1="1023.05" x2="511.69" y2="4.95" gradientTransform="matrix(1, 0, 0, -1, 0, 1026)" gradientUnits="userSpaceOnUse"><stop offset="0" stop-color="#fff"/><stop offset="1" stop-color="#fff" stop-opacity="0"/></linearGradient></defs><g class="cls-2"><path class="cls-3" d="M987.79,110.8,776.92,9.27a63.76,63.76,0,0,0-72.73,12.36L13.91,651A42.64,42.64,0,0,0,14,714.07l56.38,51.26a42.66,42.66,0,0,0,54.46,2.42L956.06,137.14C983.94,116,1024,135.87,1024,170.87v-2.44A64,64,0,0,0,987.79,110.8Z" transform="translate(0 -2.95)"/><path class="cls-4" d="M987.79,913.2,776.92,1014.73a63.76,63.76,0,0,1-72.73-12.36L13.91,373A42.64,42.64,0,0,1,14,309.93l56.38-51.26a42.65,42.65,0,0,1,54.46-2.42L956.06,886.86C983.94,908,1024,888.13,1024,853.13v2.44A64,64,0,0,1,987.79,913.2Z" transform="translate(0 -2.95)"/><path class="cls-5" d="M776.93,1014.75a63.79,63.79,0,0,1-72.74-12.38c23.61,23.6,64,6.88,64-26.5V48.12c0-33.38-40.36-50.09-64-26.49A63.78,63.78,0,0,1,776.93,9.25L987.76,110.64A64,64,0,0,1,1024,168.28V855.72a64,64,0,0,1-36.24,57.64Z" transform="translate(0 -2.95)"/><g class="cls-6"><path class="cls-7" d="M725.7,1016.7a63.67,63.67,0,0,0,50.76-2l210.7-101.38a64,64,0,0,0,36.22-57.65V168.28a64,64,0,0,0-36.22-57.64L776.46,9.25a63.72,63.72,0,0,0-72.69,12.38l-403.36,368L124.72,256.25a42.61,42.61,0,0,0-54.42,2.42L14,309.93a42.66,42.66,0,0,0,0,63.06L166.27,512,13.9,651a42.66,42.66,0,0,0,0,63.06L70.3,765.33a42.61,42.61,0,0,0,54.42,2.42L300.41,634.38l403.36,368A63.67,63.67,0,0,0,725.7,1016.7Zm42-737L461.64,512,767.69,744.32Z" transform="translate(0 -2.95)"/></g></g></svg>