<svg id="Layer_1" data-name="Layer 1" xmlns="http://www.w3.org/2000/svg" viewBox="0 0 1024 716.77"><defs><style>.cls-1{fill:#ed2224;}.cls-2{fill:#fff;}</style></defs><path class="cls-1" d="M1002.66,265.53A128.46,128.46,0,0,0,912.09,175C832.26,153.62,512,153.62,512,153.62s-320.1,0-400.09,21.34a128.44,128.44,0,0,0-90.57,90.57C0,345.35,0,512,0,512S0,678.65,21.34,758.47A128.46,128.46,0,0,0,111.91,849C191.9,870.38,512,870.38,512,870.38s320.26,0,400.09-21.34a128.44,128.44,0,0,0,90.57-90.57C1024,678.65,1024,512,1024,512S1024,345.35,1002.66,265.53Z" transform="translate(0 -153.62)"/><polygon class="cls-2" points="409.7 512 675.72 358.38 409.7 204.77 409.7 512"/></svg>